<svg width="1288" height="728" viewBox="0 0 1288 728" fill="none" xmlns="http://www.w3.org/2000/svg">
<g filter="url(#filter0_d_8_53)">
<rect x="4" width="1280" height="720" fill="#420B58"/>
<g clip-path="url(#clip0_8_53)">
<path d="M16 0H8C7.46957 0 6.96086 0.210714 6.58579 0.585786C6.21071 0.960859 6 1.46957 6 2V14C6 14.5304 6.21071 15.0391 6.58579 15.4142C6.96086 15.7893 7.46957 16 8 16H16C16.5304 16 17.0391 15.7893 17.4142 15.4142C17.7893 15.0391 18 14.5304 18 14V2C18 1.46957 17.7893 0.960859 17.4142 0.585786C17.0391 0.210714 16.5304 0 16 0V0ZM15 7C15 7.79565 14.6839 8.55871 14.1213 9.12132C13.5587 9.68393 12.7956 10 12 10C11.2044 10 10.4413 9.68393 9.87868 9.12132C9.31607 8.55871 9 7.79565 9 7C9 6.20435 9.31607 5.44129 9.87868 4.87868C10.4413 4.31607 11.2044 4 12 4C12.7956 4 13.5587 4.31607 14.1213 4.87868C14.6839 5.44129 15 6.20435 15 7V7ZM12 11C14.623 11 16.146 11.826 17 12.755V14C17 14.2652 16.8946 14.5196 16.7071 14.7071C16.5196 14.8946 16.2652 15 16 15H8C7.73478 15 7.48043 14.8946 7.29289 14.7071C7.10536 14.5196 7 14.2652 7 14V12.755C7.854 11.825 9.377 11 12 11Z" fill="black"/>
</g>
<path d="M112.165 7H111.665V8H112.165V7ZM118.165 8H118.665V7H118.165V8ZM116.165 10H115.665V11H116.165V10ZM118.165 11H118.665V10H118.165V11ZM112.165 4H111.665V5H112.165V4ZM114.165 5H114.665V4H114.165V5ZM118.165 0.5L118.519 0.146L118.372 0H118.165V0.5ZM121.165 3.5H121.665V3.293L121.519 3.146L121.165 3.5ZM112.165 8H118.165V7H112.165V8ZM116.165 11H118.165V10H116.165V11ZM112.165 5H114.165V4H112.165V5ZM120.165 14H110.165V15H120.165V14ZM109.665 13.5V1.5H108.665V13.5H109.665ZM110.165 1H118.165V0H110.165V1ZM120.665 3.5V13.5H121.665V3.5H120.665ZM117.811 0.854L120.811 3.854L121.519 3.146L118.519 0.146L117.811 0.854ZM110.165 14C110.032 14 109.905 13.9473 109.811 13.8536C109.718 13.7598 109.665 13.6326 109.665 13.5H108.665C108.665 13.8978 108.823 14.2794 109.104 14.5607C109.386 14.842 109.767 15 110.165 15V14ZM120.165 15C120.563 15 120.944 14.842 121.226 14.5607C121.507 14.2794 121.665 13.8978 121.665 13.5H120.665C120.665 13.6326 120.612 13.7598 120.518 13.8536C120.425 13.9473 120.298 14 120.165 14V15ZM109.665 1.5C109.665 1.36739 109.718 1.24021 109.811 1.14645C109.905 1.05268 110.032 1 110.165 1V0C109.767 0 109.386 0.158035 109.104 0.43934C108.823 0.720644 108.665 1.10218 108.665 1.5H109.665Z" fill="#420B58"/>
<rect x="4.5" y="0.5" width="1279" height="719" stroke="#420B58"/>
</g>
<rect x="4" width="190" height="720" fill="#08807B"/>
<path d="M183 90C183 133.078 145.392 168 99 168C52.6081 168 15 133.078 15 90C15 46.9218 52.6081 12 99 12C145.392 12 183 46.9218 183 90Z" fill="#F1A20B"/>
<path d="M68.4 60H51.978C50.091 60 48.204 61.92 48.459 65.04L56.415 124.98C56.415 124.98 65.85 80.82 67.686 70.2C68.247 67.02 70.797 66 72.684 66H99C99 66 95.43 53.52 95.073 52.14C94.461 49.5 93.339 48 91.095 48H74.214C72.378 48 70.644 49.38 70.134 51.84C69.675 54.24 68.4 60 68.4 60ZM93.288 60H72.888C72.888 60 75.03 54 77.325 54H88.188C90.636 54 93.288 60 93.288 60ZM61.617 127.5C60.036 130.32 57.741 132 55.191 132H135.414C138.168 132 140.106 130.14 140.667 127.02C142.911 113.88 149.235 76.38 149.235 76.38C149.592 73.38 147.705 72 146.073 72H129.6V63.18C129.6 62.22 128.274 60 126.234 60H107.058C104.406 60 102.621 63.48 102.621 63.48L99 72H76.509C74.877 72 73.296 73.14 72.99 75C72.99 75 64.881 115.2 64.218 118.98C63.861 121.2 63.096 124.92 61.617 127.5ZM126.438 72H104.1C104.1 72 107.058 66 109.863 66H121.542C125.163 66 126.438 72 126.438 72Z" fill="black"/>
<defs>
<filter id="filter0_d_8_53" x="0" y="0" width="1288" height="728" filterUnits="userSpaceOnUse" color-interpolation-filters="sRGB">
<feFlood flood-opacity="0" result="BackgroundImageFix"/>
<feColorMatrix in="SourceAlpha" type="matrix" values="0 0 0 0 0 0 0 0 0 0 0 0 0 0 0 0 0 0 127 0" result="hardAlpha"/>
<feOffset dy="4"/>
<feGaussianBlur stdDeviation="2"/>
<feComposite in2="hardAlpha" operator="out"/>
<feColorMatrix type="matrix" values="0 0 0 0 0 0 0 0 0 0 0 0 0 0 0 0 0 0 0.25 0"/>
<feBlend mode="normal" in2="BackgroundImageFix" result="effect1_dropShadow_8_53"/>
<feBlend mode="normal" in="SourceGraphic" in2="effect1_dropShadow_8_53" result="shape"/>
</filter>
<clipPath id="clip0_8_53">
<rect width="16" height="16" fill="white" transform="translate(4)"/>
</clipPath>
</defs>
</svg>
